<svg width="1408" height="419" viewBox="0 0 1408 419" fill="none" xmlns="http://www.w3.org/2000/svg">
<g clip-path="url(#clip0_814_4692)">
<path d="M327 0C327.66 0 328.32 0 329 0C331.872 16.2456 334.74 32.4917 337.605 48.7385C338.936 56.2819 340.267 63.8251 341.601 71.3679C342.763 77.9411 343.923 84.5147 345.081 91.0886C345.695 94.5704 346.309 98.0521 346.926 101.533C347.613 105.417 348.297 109.301 348.98 113.185C349.186 114.343 349.392 115.501 349.604 116.694C349.789 117.75 349.974 118.806 350.165 119.894C350.327 120.813 350.489 121.732 350.656 122.679C351 125 351 125 351 128C352.109 127.684 353.218 127.367 354.36 127.041C386.699 117.833 419.08 109.368 452 102.5C452.816 102.328 453.631 102.156 454.472 101.978C463.995 99.9783 473.256 98.4218 483 98C481.57 101.855 479.775 105.275 477.684 108.812C477.191 109.649 477.191 109.649 476.689 110.503C475.608 112.337 474.523 114.169 473.438 116C472.677 117.289 471.916 118.578 471.156 119.868C469.973 121.875 468.789 123.882 467.604 125.888C464.87 130.517 462.153 135.156 459.445 139.801C458.703 141.074 457.96 142.346 457.217 143.619C455.83 145.996 454.446 148.373 453.062 150.752C451.752 152.993 450.422 155.222 449.07 157.438C447.528 160.003 446.218 162.612 444.945 165.319C439.807 175.654 439.807 175.654 435.053 177.933C430.308 179.29 425.498 179.48 420.586 179.572C416.845 179.645 413.12 179.892 409.386 180.126C407.45 180.246 405.513 180.356 403.576 180.459C393.955 180.98 384.512 182.254 375 183.75C374.182 183.877 373.364 184.003 372.522 184.134C306.137 194.461 240.836 211.084 176.759 231.137C173.926 232.023 171.093 232.906 168.259 233.789C120.906 248.568 73.9554 264.701 28.0117 283.445C27.1413 283.8 26.2708 284.155 25.374 284.521C21.2566 286.205 17.1452 287.902 13.0415 289.619C12.3062 289.924 11.571 290.228 10.8134 290.542C9.44597 291.108 8.08103 291.681 6.71918 292.26C5.16918 292.899 3.58656 293.458 2 294C1.34 293.67 0.68 293.34 0 293C46.0006 258.078 99.1267 230.386 150.938 205.125C151.666 204.768 152.394 204.41 153.145 204.042C160.582 200.4 168.011 196.906 175.746 193.938C190.876 188.039 198.819 182.673 206.648 168.346C208.779 164.648 211.373 161.354 214 158C218.365 152.294 222.478 146.452 226.5 140.5C230.981 133.869 235.628 127.421 240.48 121.059C244.325 115.983 247.936 110.775 251.5 105.5C255.981 98.8694 260.628 92.4212 265.48 86.0586C269.325 80.9835 272.936 75.7746 276.5 70.5C280.981 63.8694 285.628 57.4212 290.48 51.0586C294.325 45.9835 297.936 40.7746 301.5 35.5C306.113 28.674 310.889 22.015 315.88 15.4609C319.312 10.9513 322.569 6.3537 325.695 1.625C326.341 0.820625 326.341 0.820625 327 0Z" fill="url(#paint0_linear_814_4692)"/>
<path d="M363 203C365.463 205.463 365.519 206.786 366.114 210.187C366.31 211.286 366.506 212.385 366.708 213.518C366.916 214.729 367.124 215.941 367.338 217.189C367.563 218.461 367.788 219.732 368.019 221.042C368.636 224.535 369.242 228.029 369.847 231.524C370.481 235.178 371.124 238.831 371.765 242.485C372.841 248.622 373.911 254.761 374.978 260.9C376.21 267.999 377.451 275.095 378.696 282.191C380.021 289.743 381.341 297.295 382.659 304.847C383.039 307.024 383.42 309.201 383.802 311.378C384.512 315.435 385.217 319.494 385.92 323.552C386.132 324.76 386.344 325.967 386.563 327.211C386.753 328.316 386.944 329.421 387.14 330.559C387.307 331.519 387.474 332.479 387.646 333.468C388 336 388 336 388 340C384.212 338.419 381.751 336.018 378.812 333.188C327.424 284.932 255.364 260.771 185.625 260.812C184.334 260.813 183.044 260.813 181.714 260.813C166.709 260.9 151.896 262.315 137 264C137 263.34 137 262.68 137 262C195.489 245.249 254.176 229.453 313.258 214.922C316.929 214.018 320.598 213.108 324.268 212.196C329.791 210.825 335.317 209.465 340.846 208.116C342.85 207.626 344.853 207.132 346.855 206.634C349.565 205.961 352.278 205.302 354.992 204.648C356.181 204.348 356.181 204.348 357.394 204.042C359.243 203.605 361.121 203.289 363 203Z" fill="#68686A"/>
<path d="M135.496 274.725C136.434 274.716 137.372 274.707 138.338 274.697C139.872 274.698 139.872 274.698 141.438 274.699C142.497 274.694 143.556 274.688 144.648 274.682C148.099 274.67 151.549 274.677 155 274.687C156.168 274.689 157.337 274.691 158.54 274.693C175.195 274.737 191.574 274.969 208 278C208.976 278.177 209.953 278.354 210.958 278.536C233.686 282.789 255.148 290.046 275.875 300.25C276.884 300.744 276.884 300.744 277.913 301.248C281.095 302.855 283.57 304.407 286 307C285.258 307.015 284.515 307.029 283.75 307.044C214.268 308.554 148.305 327.932 91 368C90.1255 368.606 90.1255 368.606 89.2334 369.225C68.4673 383.658 48.7645 399.981 31 418C30.34 417.67 29.68 417.34 29 417C29.331 416.544 29.6619 416.088 30.0029 415.617C36.0489 407.278 42.0754 398.926 48 390.5C52.6613 383.871 57.3894 377.293 62.1445 370.73C65.8 365.679 69.4136 360.6 73 355.5C77.6614 348.871 82.3894 342.293 87.1445 335.73C90.8 330.679 94.4136 325.6 98 320.5C102.653 313.882 107.371 307.315 112.12 300.766C116.546 294.654 120.902 288.494 125.219 282.305C125.921 281.303 125.921 281.303 126.637 280.281C127.251 279.4 127.251 279.4 127.878 278.502C130.318 275.236 131.508 274.748 135.496 274.725Z" fill="url(#paint1_linear_814_4692)"/>
<path d="M1040 236C1040 239.96 1040 243.92 1040 248C1041.18 247.113 1042.35 246.226 1043.56 245.313C1045.04 244.208 1046.52 243.104 1048 242C1048.96 241.269 1048.96 241.269 1049.95 240.523C1057.52 234.905 1065.87 235.18 1075 236C1082.23 237.566 1088.22 241.376 1093 247C1099.58 257.626 1100.48 268.671 1098.32 280.848C1093.76 298.233 1081.01 308.938 1066 318C1061.8 320.117 1058.24 320.269 1053.56 320.25C1052.29 320.255 1051.01 320.26 1049.69 320.266C1046.1 320.007 1043.37 319.198 1040 318C1040.12 322.36 1040.24 326.72 1040.37 331.08C1040.42 332.563 1040.46 334.046 1040.5 335.529C1040.56 337.661 1040.62 339.794 1040.68 341.926C1040.74 343.85 1040.74 343.85 1040.79 345.814C1040.87 349.021 1040.87 349.021 1042 352C1045.96 352.66 1049.92 353.32 1054 354C1054 356.64 1054 359.28 1054 362C1037.5 362 1021 362 1004 362C1004 359.36 1004 356.72 1004 354C1009.45 353.01 1009.45 353.01 1015 352C1015.93 346.48 1016.14 341.169 1016.11 335.576C1016.11 334.659 1016.11 333.741 1016.11 332.795C1016.11 329.781 1016.11 326.768 1016.1 323.754C1016.1 321.656 1016.09 319.559 1016.09 317.461C1016.09 311.956 1016.08 306.45 1016.07 300.945C1016.06 295.32 1016.05 289.696 1016.05 284.072C1016.04 273.048 1016.02 262.024 1016 251C1012.04 250.67 1008.08 250.34 1004 250C1003.96 247.667 1003.96 245.333 1004 243C1005.5 241.498 1007 241.629 1009.09 241.352C1009.93 241.235 1010.77 241.118 1011.64 240.997C1012.54 240.874 1013.45 240.752 1014.38 240.625C1021.04 239.682 1027.47 238.589 1033.91 236.551C1036 236 1036 236 1040 236ZM1039 260C1038.29 262.954 1038.32 265.816 1038.37 268.844C1038.37 269.69 1038.37 270.537 1038.36 271.41C1038.36 273.195 1038.38 274.98 1038.4 276.765C1038.44 279.492 1038.42 282.215 1038.4 284.941C1038.41 286.68 1038.42 288.418 1038.43 290.156C1038.43 290.968 1038.42 291.779 1038.42 292.616C1038.52 297.665 1039.22 300.331 1043 304C1048.74 307.95 1054.08 310.021 1061 309C1066.12 307.092 1070.26 303.762 1073 299C1077.58 288.647 1077.85 274.505 1074.44 263.75C1071.88 257.84 1068.01 254.616 1062.44 251.625C1053.57 249.353 1044.65 252.972 1039 260Z" fill="white"/>
<path d="M814 199C844.36 199 874.72 199 906 199C906.952 202.809 906.966 204.646 906.441 208.422C906.303 209.447 906.164 210.471 906.021 211.527C905.87 212.591 905.719 213.654 905.562 214.75C905.415 215.829 905.267 216.908 905.115 218.02C904.75 220.681 904.378 223.341 904 226C901.36 226 898.72 226 896 226C895.67 221.71 895.34 217.42 895 213C889.903 211.341 885.25 210.674 879.879 210.586C878.762 210.557 878.762 210.557 877.622 210.527C875.269 210.468 872.916 210.421 870.562 210.375C868.956 210.337 867.35 210.298 865.744 210.258C861.83 210.162 857.915 210.078 854 210C854.005 210.745 854.01 211.489 854.016 212.256C854.178 238.75 854.178 238.75 853 251C856.667 251.029 860.333 251.047 864 251.062C865.03 251.071 866.06 251.079 867.121 251.088C872.833 251.106 878.375 251.055 884 250C885.217 247.566 885.32 245.582 885.562 242.875C885.688 241.51 885.688 241.51 885.816 240.117C885.877 239.419 885.938 238.72 886 238C888.97 238 891.94 238 895 238C895 250.87 895 263.74 895 277C892.36 277 889.72 277 887 277C885.281 275.281 885.671 272.908 885.5 270.562C885.286 266.636 885.286 266.636 884 263C874.072 261.759 864.006 262 854 262C854 276.85 854 291.7 854 307C868.19 306.67 882.38 306.34 897 306C897.33 303.36 897.66 300.72 898 298C898.331 296.162 898.682 294.328 899.062 292.5C899.327 291.216 899.327 291.216 899.598 289.906C899.73 289.277 899.863 288.648 900 288C902.97 288 905.94 288 909 288C908.692 291.875 908.378 295.75 908.062 299.625C907.975 300.719 907.888 301.814 907.799 302.941C907.712 304.005 907.625 305.068 907.535 306.164C907.457 307.138 907.378 308.112 907.297 309.116C906.989 312.106 906.524 315.041 906 318C900.924 318.836 896.009 319.139 890.862 319.114C890.08 319.114 889.299 319.114 888.494 319.114C885.935 319.113 883.376 319.106 880.816 319.098C879.033 319.096 877.249 319.094 875.466 319.093C870.788 319.09 866.111 319.08 861.434 319.069C856.655 319.058 851.875 319.054 847.096 319.049C837.73 319.038 828.365 319.021 819 319C819 317.02 819 315.04 819 313C820.134 312.464 821.269 311.928 822.438 311.375C824.435 310.543 824.435 310.543 826 309C827.272 302.985 827.357 296.937 827.562 290.812C827.625 288.952 827.625 288.952 827.689 287.054C828.489 261.089 828.718 234.93 827 209C822.71 208.34 818.42 207.68 814 207C814 204.36 814 201.72 814 199Z" fill="white"/>
<path d="M445 198C449.62 198 454.24 198 459 198C463.173 206.889 467.087 215.837 470.835 224.91C471.781 227.199 472.73 229.486 473.68 231.773C475.057 235.086 476.432 238.4 477.807 241.714C481.29 250.11 484.775 258.505 488.274 266.894C489.037 268.727 489.799 270.56 490.56 272.394C492.663 277.468 494.789 282.53 496.959 287.576C497.663 289.214 498.36 290.855 499.053 292.499C500.066 294.891 501.109 297.269 502.16 299.645C502.458 300.36 502.757 301.076 503.064 301.814C504.632 305.271 505.565 306.798 509.06 308.421C510.03 308.612 511.001 308.803 512 309C512.949 309.206 513.897 309.412 514.875 309.625C515.927 309.811 515.927 309.811 517 310C517 312.97 517 315.94 517 319C498.85 319 480.7 319 462 319C462 316.03 462 313.06 462 310C467.94 309.01 467.94 309.01 474 308C472.972 298.912 472.972 298.912 466 283C451.81 282.67 437.62 282.34 423 282C422.01 285.3 421.02 288.6 420 292C418.897 295.407 417.791 298.813 416.672 302.215C415.725 305.059 415.725 305.059 417 308C420.96 308.66 424.92 309.32 429 310C429 312.97 429 315.94 429 319C415.8 319 402.6 319 389 319C389 316.03 389 313.06 389 310C391.181 309.74 393.362 309.479 395.543 309.219C403.729 305.158 407.032 290.894 410.375 282.812C411.08 281.122 411.785 279.433 412.491 277.743C418.899 262.368 425.158 246.932 431.384 231.483C434.383 224.044 437.408 216.615 440.438 209.188C440.905 208.042 441.372 206.896 441.853 205.716C442.902 203.144 443.951 200.572 445 198ZM444 230C441.715 235.497 439.436 240.996 437.164 246.498C436.39 248.37 435.614 250.241 434.836 252.111C433.719 254.797 432.609 257.486 431.5 260.176C431.15 261.013 430.8 261.851 430.439 262.714C430.119 263.495 429.799 264.275 429.469 265.079C429.185 265.766 428.9 266.452 428.607 267.159C427.843 269.152 427.843 269.152 428 272C439.22 272 450.44 272 462 272C456.403 257.97 450.795 243.949 445 230C444.67 230 444.34 230 444 230Z" fill="white"/>
<path d="M741 236C741.495 241.94 741.495 241.94 742 248C742.846 247.229 743.691 246.458 744.562 245.664C745.708 244.65 746.854 243.637 748 242.625C748.553 242.117 749.106 241.609 749.676 241.086C755.645 235.872 761.838 234.577 769.711 234.82C777.506 235.432 783.361 237.348 789 243C796.889 254.721 794.23 272.345 794.125 285.812C794.115 288.066 794.106 290.319 794.098 292.572C794.076 298.048 794.042 303.524 794 309C794.626 309.061 795.253 309.121 795.898 309.184C797.124 309.309 797.124 309.309 798.375 309.437C799.593 309.559 799.593 309.559 800.836 309.684C803 310 803 310 805 311C805 313.64 805 316.28 805 319C793.12 319 781.24 319 769 319C769 306.931 769 306.931 769.5 302.187C772.15 278.308 772.15 278.308 766.047 256.191C763.785 253.77 762.906 253.092 759.645 252.762C753.128 252.591 749.27 253.075 744 257C741.838 260.243 741.754 261.101 741.773 264.839C741.773 266.31 741.773 266.31 741.773 267.811C741.784 268.867 741.794 269.923 741.805 271.012C741.809 272.637 741.809 272.637 741.813 274.295C741.824 277.759 741.85 281.223 741.875 284.687C741.885 287.034 741.894 289.381 741.902 291.729C741.924 297.486 741.959 303.243 742 309C745.96 309.66 749.92 310.32 754 311C754 313.64 754 316.28 754 319C738.16 319 722.32 319 706 319C706 316.36 706 313.72 706 311C706.71 310.879 707.421 310.758 708.152 310.633C709.071 310.465 709.991 310.298 710.938 310.125C711.854 309.963 712.771 309.8 713.715 309.633C714.469 309.424 715.223 309.215 716 309C717.297 306.407 717.12 304.536 717.114 301.632C717.113 300.511 717.113 299.39 717.113 298.235C717.108 297.021 717.103 295.806 717.098 294.555C717.096 293.315 717.095 292.074 717.093 290.797C717.089 287.499 717.08 284.201 717.069 280.903C717.058 277.538 717.054 274.173 717.049 270.809C717.038 264.206 717.021 257.603 717 251C713.37 250.67 709.74 250.34 706 250C706 247.69 706 245.38 706 243C706.525 242.902 707.049 242.804 707.59 242.703C713.359 241.59 719.089 240.325 724.812 239C725.541 238.834 726.27 238.668 727.021 238.497C730.067 237.784 732.937 237.027 735.824 235.812C738 235 738 235 741 236Z" fill="white"/>
<path d="M518 237C533.51 237 549.02 237 565 237C565 239.64 565 242.28 565 245C562.03 245.66 559.06 246.32 556 247C556.529 253.052 557.894 258.039 560.16 263.656C560.469 264.444 560.779 265.232 561.098 266.043C562.077 268.532 563.07 271.016 564.062 273.5C564.733 275.198 565.403 276.895 566.072 278.594C567.705 282.733 569.349 286.868 571 291C573.828 287.633 575.438 283.964 577.066 279.926C577.486 278.901 577.486 278.901 577.914 277.855C578.502 276.412 579.088 274.967 579.671 273.521C580.554 271.333 581.451 269.152 582.35 266.971C585.163 260.073 587.733 253.377 589 246C584.05 245.505 584.05 245.505 579 245C579 242.36 579 239.72 579 237C590.22 237 601.44 237 613 237C613 239.64 613 242.28 613 245C612.374 245.075 611.747 245.15 611.102 245.227C610.284 245.358 609.467 245.49 608.625 245.625C607.813 245.741 607.001 245.857 606.164 245.977C603.708 246.827 603.708 246.827 603.04 249.669C602.697 250.769 602.354 251.868 602 253C601.094 255.116 600.158 257.22 599.199 259.312C598.635 260.55 598.071 261.787 597.507 263.024C597.211 263.671 596.915 264.318 596.61 264.984C591.407 276.353 586.322 287.768 581.375 299.25C577.135 309.076 572.881 318.895 568.562 328.688C568.091 329.767 567.619 330.847 567.132 331.96C556.57 355.823 556.57 355.823 545 362C541.401 363.2 538.419 363.169 534.625 363.188C533.318 363.202 532.011 363.216 530.664 363.23C527.262 363.016 525.033 362.481 522 361C522.48 354.831 523.069 348.9 525 343C526.485 342.505 526.485 342.505 528 342C529.707 343.281 531.374 344.618 533 346C537.28 347.427 541.129 347.746 545.383 346.051C549.269 343.006 551.19 339.243 553.5 334.938C553.98 334.129 554.459 333.32 554.953 332.486C555.391 331.675 555.83 330.863 556.281 330.027C556.684 329.303 557.087 328.578 557.502 327.832C559.077 318.878 552.397 308.135 549.09 299.91C548.516 298.474 547.942 297.039 547.368 295.603C546.173 292.614 544.975 289.626 543.775 286.639C542.238 282.813 540.707 278.983 539.179 275.153C537.998 272.197 536.815 269.242 535.63 266.287C535.064 264.875 534.499 263.462 533.935 262.049C533.149 260.081 532.358 258.115 531.566 256.149C531.118 255.031 530.669 253.913 530.207 252.761C529.038 249.867 529.038 249.867 527 247C524.815 246.206 524.815 246.206 522.375 245.812C521.558 245.654 520.74 245.495 519.898 245.332C519.272 245.222 518.645 245.113 518 245C518 242.36 518 239.72 518 237Z" fill="white"/>
<path d="M681.602 241.488C688.88 249.356 688.146 259.823 688.098 269.84C688.097 270.962 688.096 272.084 688.094 273.24C688.088 276.806 688.076 280.372 688.063 283.938C688.058 286.363 688.054 288.788 688.05 291.213C688.039 297.142 688.021 303.071 688.001 309C691.301 309.66 694.601 310.32 698.001 311C698.001 313.64 698.001 316.28 698.001 319C687.111 319 676.221 319 665.001 319C664.211 315.053 663.909 311.957 664.001 308C662.941 308.782 661.881 309.565 660.79 310.371C659.402 311.393 658.014 312.415 656.626 313.438C655.578 314.212 655.578 314.212 654.509 315.002C653.838 315.495 653.168 315.988 652.477 316.496C651.859 316.952 651.241 317.407 650.605 317.877C647.135 320.307 644.461 320.197 640.251 320.25C638.433 320.289 638.433 320.289 636.579 320.328C631.254 319.84 628.083 318.033 624.251 314.375C619.443 308.047 619.613 300.462 620.473 292.867C621.392 287.872 622.777 283.956 626.657 280.543C636.857 273.624 652.685 269 665.001 269C663.565 259.639 663.565 259.639 658.001 252.25C652.862 249.038 646.966 249.473 641.188 250.5C637.779 252.838 636.558 256.259 635.001 260C632.691 259.67 630.381 259.34 628.001 259C627.174 254.763 626.9 251.203 628.001 247C641.295 234.588 666.448 229.18 681.602 241.488ZM645.001 285C642.574 288.444 641.756 290.987 642.063 295.125C643.038 299.153 643.757 300.543 647.001 303C649.36 304.179 650.574 304.113 653.188 303.938C653.924 303.905 654.66 303.873 655.419 303.84C659.505 302.511 662.46 300.496 665.001 297C665.829 293.493 665.67 290.203 665.438 286.625C665.407 285.698 665.375 284.771 665.342 283.816C665.26 281.541 665.146 279.272 665.001 277C658.26 277 650.049 280.599 645.001 285Z" fill="white"/>
<path d="M1219.12 234.797C1228.21 234.344 1237.31 236.465 1244.32 242.41C1250.36 248.128 1253.62 253.62 1254.12 262.018C1254.25 266.683 1254.16 271.336 1254 276C1243.27 278.429 1232.67 278.23 1221.75 278.125C1219.93 278.115 1218.1 278.106 1216.28 278.098C1211.85 278.076 1207.43 278.041 1203 278C1203.44 279.909 1203.9 281.816 1204.35 283.723C1204.61 284.785 1204.86 285.847 1205.12 286.942C1207.12 293.869 1210.97 299.019 1217 303C1226.73 306.993 1234.23 306.288 1244 303C1245.2 302.608 1246.39 302.216 1247.62 301.812C1248.8 301.41 1248.8 301.41 1250 301C1250.66 301.66 1251.32 302.32 1252 303C1251.76 307.315 1250.2 311.087 1247 314C1234.29 320.714 1219.54 322.033 1205.46 319.316C1195.14 315.808 1187.81 309.177 1182.74 299.629C1179.86 292.687 1179.62 285.85 1179.56 278.437C1179.55 277.002 1179.55 277.002 1179.53 275.537C1179.66 264.925 1181.53 256.157 1189.07 248.43C1197.81 241.174 1207.77 235.885 1219.12 234.797ZM1206 251C1203.48 255.322 1202.86 259.303 1202.93 264.27C1202.94 265.603 1202.94 265.603 1202.96 266.964C1202.97 267.636 1202.99 268.308 1203 269C1207.48 269.029 1211.96 269.047 1216.44 269.062C1217.72 269.071 1219 269.079 1220.31 269.088C1221.53 269.091 1222.74 269.094 1224 269.098C1225.12 269.103 1226.25 269.108 1227.41 269.114C1229.93 269.295 1229.93 269.295 1231 268C1231.55 260.319 1230.47 253.951 1225.44 247.937C1218.26 243.89 1211.47 244.595 1206 251Z" fill="white"/>
<path d="M939 236C949.139 240.962 955.429 252.655 961 262C963.992 259.23 965.929 256.617 967.82 253.016C976.197 238.135 976.197 238.135 981.412 236.023C986.744 235.169 991.759 235.877 997 237C997 239.64 997 242.28 997 245C996.432 245.208 995.863 245.415 995.277 245.629C984.722 249.841 978.899 258.269 972 267C971.376 267.666 970.752 268.333 970.109 269.02C969.743 269.673 969.377 270.327 969 271C970.819 276.692 974.389 281.394 977.688 286.313C978.588 287.681 978.588 287.681 979.506 289.076C985.974 299.418 985.974 299.418 995.438 306.5C996.283 306.665 997.129 306.83 998 307C998 309.31 998 311.62 998 314C995.318 315.182 992.631 316.346 989.938 317.5C989.185 317.834 988.433 318.168 987.658 318.512C982.98 320.497 979.158 321.826 974 321C967.709 317.204 964.5 310.965 960.75 304.813C959.518 302.818 958.283 300.824 957.047 298.832C956.509 297.953 955.971 297.073 955.417 296.167C954.047 293.911 954.047 293.911 952 292C950.696 293.846 949.393 295.692 948.091 297.539C946.983 299.104 945.868 300.663 944.745 302.217C942.357 305.537 940.149 308.71 938.277 312.355C936.727 315.349 935.777 317.061 933 319C927.056 320.159 920.982 319.57 915 319C915 316.36 915 313.72 915 311C916.258 310.753 917.516 310.505 918.812 310.25C926.041 307.826 930.337 301.703 935 296C935.488 295.417 935.976 294.834 936.479 294.233C937.922 292.503 939.34 290.757 940.75 289C941.193 288.461 941.635 287.921 942.092 287.366C944.343 284.511 944.343 284.511 945.051 281.043C943.452 277.935 941.494 275.128 939.438 272.313C938.991 271.695 938.544 271.077 938.084 270.44C931.123 259.887 931.123 259.887 920.957 253.586C920.249 253.516 919.542 253.447 918.812 253.375C917.554 253.251 916.296 253.128 915 253C914.461 249.875 914.461 249.875 915 246C917.526 243.42 920.499 241.769 923.625 240C924.837 239.248 924.837 239.248 926.074 238.48C930.664 235.771 933.685 234.082 939 236Z" fill="white"/>
<path d="M1402 239C1402.16 246.716 1401.67 254.315 1401 262C1398.36 262 1395.72 262 1393 262C1392.89 261.241 1392.78 260.481 1392.67 259.699C1392.51 258.705 1392.35 257.711 1392.19 256.687C1392.04 255.701 1391.89 254.715 1391.73 253.699C1390.94 250.766 1390.42 249.77 1388 248C1384.27 246.118 1381.15 245.703 1377 245.687C1375.99 245.671 1374.98 245.654 1373.94 245.637C1369.63 246.169 1367.03 247.972 1364 251C1363.43 255.081 1363.43 255.081 1364 259C1368.92 264.812 1377.59 265.173 1384.65 266.623C1392.57 268.357 1398.66 270.571 1404.37 276.437C1408.69 283.236 1409.06 290.705 1407.5 298.5C1404.97 307.015 1400.24 311.444 1392.64 315.676C1378.64 322.704 1362.33 321.364 1347.68 316.973C1345 316 1345 316 1344 315C1343.6 306.634 1344.05 298.312 1345 290C1347.64 290 1350.28 290 1353 290C1353.07 290.88 1353.15 291.761 1353.23 292.668C1353.76 300.189 1353.76 300.189 1357.75 306.187C1364.46 309.932 1370.37 310.783 1378 310C1381.45 308.653 1381.45 308.653 1384 307C1384.66 307 1385.32 307 1386 307C1386.88 304.357 1387.17 301.767 1387.31 299C1387.37 298.01 1387.37 298.01 1387.43 297C1386.79 294.003 1385.36 292.891 1383 291C1380.3 289.837 1380.3 289.837 1377.25 289.062C1376.11 288.731 1374.97 288.4 1373.79 288.059C1371.84 287.514 1369.89 286.971 1367.94 286.434C1350.54 281.593 1350.54 281.593 1345.06 272.937C1342.52 265.726 1342.9 257.465 1346.06 250.562C1350.77 242.451 1357.18 238.739 1366 236C1376.71 233.664 1391.95 233.974 1402 239Z" fill="white"/>
<path d="M1325 239C1325.14 246.728 1324.75 254.309 1324 262C1321.36 262 1318.72 262 1316 262C1315.95 261.18 1315.9 260.36 1315.84 259.516C1315.36 253.461 1315.36 253.461 1312.51 248.312C1306.98 245.193 1300.16 245.057 1294 246C1290.53 247.698 1289.17 248.743 1287 252C1286.42 255.458 1286.42 255.458 1287 259C1292 264.795 1300.55 265.165 1307.65 266.623C1315.57 268.357 1321.66 270.571 1327.38 276.437C1331.69 283.248 1332.01 290.653 1330.54 298.465C1328.46 305.636 1325.13 310.166 1318.67 313.953C1303.32 322.038 1287.14 321.906 1270.68 316.973C1268 316 1268 316 1267 315C1266.56 306.644 1267.16 298.312 1268 290C1270.64 290 1273.28 290 1276 290C1276.08 290.88 1276.15 291.761 1276.23 292.668C1276.76 300.189 1276.76 300.189 1280.75 306.187C1287.86 310.155 1295.16 311.424 1303.2 309.465C1305.75 308.487 1307.66 307.404 1309.44 305.312C1310.27 301.892 1310.8 298.459 1310 295C1307.19 291.41 1304.58 290.255 1300.25 289.062C1299.11 288.731 1297.97 288.4 1296.79 288.059C1294.84 287.514 1292.89 286.971 1290.94 286.434C1273.34 281.538 1273.34 281.538 1268.93 274.227C1265.7 267.098 1266.01 259.047 1268.5 251.75C1271.73 244.642 1276.99 240.639 1284.06 237.625C1295.92 233.408 1313.41 233.205 1325 239Z" fill="white"/>
<path d="M1142 235C1143.07 238.462 1143.1 241.64 1143.06 245.25C1143.05 246.328 1143.04 247.405 1143.04 248.516C1143.02 249.335 1143.01 250.155 1143 251C1143.87 250.013 1144.74 249.025 1145.63 248.008C1146.8 246.713 1147.96 245.419 1149.13 244.125C1149.69 243.474 1150.26 242.823 1150.85 242.152C1154.26 238.392 1156.8 235.818 1162 235C1165.04 235.15 1168 235.507 1171 236C1171.03 239.792 1171.05 243.583 1171.06 247.375C1171.07 248.455 1171.08 249.535 1171.09 250.648C1171.09 251.68 1171.09 252.711 1171.1 253.773C1171.1 254.727 1171.11 255.68 1171.11 256.662C1171 259 1171 259 1170 261C1168.31 261.938 1168.31 261.938 1166 262C1164.59 260.721 1163.18 259.442 1161.77 258.16C1158.43 255.972 1154.82 256.345 1151 257C1147.37 258.624 1146.23 259.661 1144 263C1143.71 265.16 1143.71 265.16 1143.77 267.563C1143.77 268.944 1143.77 268.944 1143.77 270.353C1143.78 271.344 1143.79 272.335 1143.8 273.355C1143.81 274.881 1143.81 274.881 1143.81 276.437C1143.82 279.687 1143.85 282.937 1143.88 286.188C1143.89 288.39 1143.89 290.592 1143.9 292.795C1143.92 298.197 1143.96 303.598 1144 309C1148.29 309.66 1152.58 310.32 1157 311C1157 313.64 1157 316.28 1157 319C1140.5 319 1124 319 1107 319C1107 316.36 1107 313.72 1107 311C1111.95 310.01 1111.95 310.01 1117 309C1119.45 303.28 1119.27 297.872 1119.23 291.766C1119.23 290.691 1119.23 289.617 1119.23 288.51C1119.23 286.247 1119.22 283.985 1119.21 281.722C1119.19 278.248 1119.19 274.775 1119.19 271.301C1119.18 269.102 1119.17 266.902 1119.17 264.703C1119.17 263.66 1119.17 262.618 1119.16 261.544C1119.16 260.582 1119.15 259.621 1119.15 258.63C1119.14 257.782 1119.14 256.934 1119.13 256.06C1119.13 253.936 1119.13 253.936 1118 252C1115.42 251.309 1115.42 251.309 1112.44 250.875C1111.43 250.707 1110.41 250.54 1109.37 250.367C1108.59 250.246 1107.81 250.125 1107 250C1106.96 247.667 1106.96 245.333 1107 243C1108.5 241.502 1109.97 241.649 1112.05 241.387C1112.89 241.275 1113.73 241.163 1114.59 241.048C1115.94 240.87 1115.94 240.87 1117.31 240.688C1124.51 239.685 1131.07 238.346 1137.88 235.77C1140 235 1140 235 1142 235Z" fill="white"/>
<path d="M327 0C327.66 0 328.32 0 329 0C331.872 16.2456 334.74 32.4917 337.605 48.7385C338.936 56.2819 340.267 63.8251 341.601 71.3679C342.763 77.9411 343.923 84.5147 345.081 91.0886C345.695 94.5704 346.309 98.0521 346.926 101.533C347.613 105.417 348.297 109.301 348.98 113.185C349.186 114.343 349.392 115.501 349.604 116.694C349.789 117.75 349.974 118.806 350.165 119.894C350.327 120.813 350.489 121.732 350.656 122.679C351 125 351 125 351 128C352.109 127.684 353.218 127.367 354.36 127.041C386.699 117.833 419.08 109.368 452 102.5C452.816 102.328 453.631 102.156 454.472 101.978C463.995 99.9783 473.256 98.4218 483 98C481.57 101.855 479.775 105.275 477.684 108.812C477.191 109.649 477.191 109.649 476.689 110.503C475.608 112.337 474.523 114.169 473.438 116C472.677 117.289 471.916 118.578 471.156 119.868C469.973 121.875 468.789 123.882 467.604 125.888C464.87 130.517 462.153 135.156 459.445 139.801C458.703 141.074 457.96 142.346 457.217 143.619C455.83 145.996 454.446 148.373 453.062 150.752C451.752 152.993 450.422 155.222 449.07 157.438C447.528 160.003 446.218 162.612 444.945 165.319C439.807 175.654 439.807 175.654 435.053 177.933C430.308 179.29 425.498 179.48 420.586 179.572C416.845 179.645 413.12 179.892 409.386 180.126C407.45 180.246 405.513 180.356 403.576 180.459C393.955 180.98 384.512 182.254 375 183.75C374.182 183.877 373.364 184.003 372.522 184.134C306.137 194.461 240.836 211.084 176.759 231.137C173.926 232.023 171.093 232.906 168.259 233.789C120.906 248.568 73.9554 264.701 28.0117 283.445C27.1413 283.8 26.2708 284.155 25.374 284.521C21.2566 286.205 17.1452 287.902 13.0415 289.619C12.3062 289.924 11.571 290.228 10.8134 290.542C9.44597 291.108 8.08103 291.681 6.71918 292.26C5.16918 292.899 3.58656 293.458 2 294C1.34 293.67 0.68 293.34 0 293C46.0006 258.078 99.1267 230.386 150.938 205.125C151.666 204.768 152.394 204.41 153.145 204.042C160.582 200.399 168.011 196.907 175.746 193.938C190.921 188.009 199.544 182.379 207.008 167.554C207.335 167.041 207.663 166.528 208 166C208.66 166 209.32 166 210 166C208.31 174.152 201.689 183.255 195.252 188.396C191.524 190.746 187.507 192.388 183.421 194.012C179.686 195.537 176.043 197.255 172.383 198.952C169.295 200.383 166.199 201.797 163.102 203.207C148.461 209.894 134.029 216.879 119.842 224.483C117.178 225.905 114.508 227.315 111.836 228.721C96.2017 236.949 80.7794 245.436 65.5894 254.467C63.2153 255.873 60.8318 257.259 58.4414 258.637C50.51 263.217 42.7488 268.018 35.0625 273C33.7549 273.847 33.7549 273.847 32.4209 274.711C27.9794 277.565 27.9794 277.565 24 281C31.6248 278.907 38.9318 276.178 46.2819 273.276C49.725 271.918 53.175 270.578 56.625 269.238C57.3308 268.964 58.0366 268.69 58.7637 268.407C70.7739 263.752 82.8728 259.34 95 255C96.1512 254.588 96.1512 254.588 97.3256 254.167C142.378 238.058 187.886 223.753 234 211C234.834 210.769 235.668 210.538 236.527 210.299C256.317 204.818 276.183 200.046 296.273 195.8C299.804 195.042 303.325 194.252 306.844 193.445C329.506 188.248 352.315 183.971 375.334 180.696C376.819 180.482 378.304 180.263 379.787 180.039C388.758 178.683 397.494 177.889 406.57 177.82C423.945 178.29 423.945 178.29 439.131 171.454C444.33 165.602 447.42 158.312 450.366 151.142C453.226 144.187 456.97 137.889 460.876 131.48C462.691 128.485 464.45 125.458 466.215 122.434C470.429 115.26 474.687 108.114 479 101C440.16 104.715 401.069 116.348 363.772 127.292C362.924 127.54 362.076 127.789 361.202 128.045C359.619 128.511 358.037 128.979 356.456 129.451C351.216 131 351.217 131 349 131C348.806 129.857 348.806 129.857 348.608 128.692C345.112 108.138 341.54 87.5978 337.938 67.0625C337.627 65.2899 337.627 65.2899 337.31 63.4815C334.975 50.1707 332.626 36.8627 330.254 23.5586C330.043 22.3735 329.832 21.1883 329.615 19.9673C329.418 18.8649 329.221 17.7625 329.018 16.6267C328.759 15.1743 328.759 15.1743 328.494 13.6926C328.022 11.1226 327.52 8.56065 327 6C323.503 9.33296 320.684 12.6765 318 16.6875C314.324 22.1129 310.539 27.4476 306.688 32.75C302.417 38.6382 298.183 44.5493 294 50.5C289.345 57.1198 284.625 63.6894 279.875 70.241C275.514 76.2657 271.217 82.3344 266.957 88.4316C264.416 92.0553 261.813 95.5783 259 99C258.34 98.67 257.68 98.34 257 98C263.115 89.2956 269.258 80.6139 275.5 72C279.707 66.1943 283.876 60.3649 288 54.5C292.658 47.8759 297.382 41.3028 302.134 34.7458C305.898 29.5444 309.617 24.3131 313.312 19.0625C314.762 17.0079 316.212 14.9536 317.662 12.8994C318.531 11.6657 319.399 10.4307 320.264 9.19434C321.378 7.60445 322.501 6.02073 323.625 4.4375C324.236 3.56996 324.847 2.70242 325.477 1.80859C325.979 1.21176 326.482 0.614922 327 0Z" fill="#40417B"/>
<path d="M208 166C208.66 166 209.32 166 210 166C208.31 174.152 201.689 183.255 195.252 188.396C191.524 190.746 187.507 192.388 183.421 194.012C179.686 195.537 176.043 197.255 172.383 198.952C169.295 200.383 166.199 201.797 163.102 203.207C148.461 209.894 134.029 216.879 119.842 224.483C117.178 225.905 114.508 227.315 111.836 228.721C96.2017 236.949 80.7794 245.436 65.5894 254.467C63.2153 255.873 60.8318 257.259 58.4414 258.637C50.51 263.217 42.7488 268.018 35.0625 273C34.1908 273.565 33.319 274.129 32.4209 274.711C27.9794 277.565 27.9794 277.565 24 281C31.6272 278.907 38.9365 276.176 46.289 273.273C49.6963 271.93 53.1096 270.601 56.5234 269.273C57.2239 269.001 57.9243 268.729 58.6459 268.448C69.6258 264.193 80.6944 260.176 91.7676 256.17C94.6861 255.114 97.6012 254.048 100.516 252.98C102.052 252.424 103.588 251.868 105.125 251.312C105.787 251.068 106.45 250.824 107.132 250.573C110.351 249.424 112.51 249 116 249C116 249.66 116 250.32 116 251C114.392 251.548 114.392 251.548 112.751 252.107C91.6962 259.298 70.7445 266.703 50 274.75C49.0813 275.106 48.1626 275.463 47.216 275.83C38.2144 279.329 29.2348 282.877 20.3047 286.555C19.3295 286.956 19.3295 286.956 18.3345 287.365C15.3953 288.577 12.4619 289.8 9.53516 291.042C8.5516 291.454 7.56805 291.865 6.55469 292.289C5.29374 292.826 5.29374 292.826 4.00732 293.374C2 294 2 294 0 293C46.0006 258.078 99.1267 230.386 150.938 205.125C151.666 204.768 152.394 204.41 153.145 204.042C160.582 200.399 168.011 196.907 175.746 193.938C190.921 188.009 199.544 182.379 207.008 167.554C207.335 167.041 207.663 166.528 208 166Z" fill="#3F2F71"/>
<path d="M175 275C213.057 275.983 253.65 285.068 286 306C286 306.33 286 306.66 286 307C285.258 307.015 284.515 307.029 283.75 307.044C214.268 308.554 148.305 327.932 91 368C90.1255 368.606 90.1255 368.606 89.2334 369.225C76.574 378.024 64.5485 387.491 52.9729 397.673C50.058 400.236 47.1597 402.736 44 405C47.8727 396.606 55.1444 390.926 62.2817 385.352C64.1698 383.866 66.0356 382.356 67.9023 380.844C112.938 344.708 167.179 319.449 224 309C224.832 308.847 225.664 308.694 226.521 308.536C243.197 305.585 260.115 304.882 277 304C244.196 287.225 211.283 280.647 175 277C175 276.34 175 275.68 175 275Z" fill="#403B78"/>
<path d="M401 178C400.67 178.66 400.34 179.32 400 180C398.246 180.484 398.246 180.484 395.919 180.819C395.041 180.95 394.164 181.081 393.26 181.217C392.292 181.353 391.325 181.489 390.328 181.629C388.241 181.939 386.155 182.25 384.068 182.562C382.958 182.724 381.849 182.886 380.706 183.054C302.696 194.542 226.042 214.547 151.191 239.188C150.128 239.537 149.064 239.887 147.968 240.247C142.784 241.955 137.604 243.675 132.431 245.416C130.569 246.035 128.706 246.654 126.844 247.273C125.99 247.565 125.136 247.857 124.256 248.158C123.08 248.547 123.08 248.547 121.881 248.943C120.86 249.287 120.86 249.287 119.818 249.638C118 250 118 250 115 249C118.078 246.948 120.739 245.922 124.227 244.707C124.865 244.485 125.503 244.262 126.161 244.033C128.313 243.286 130.469 242.548 132.625 241.813C133.76 241.424 133.76 241.424 134.917 241.028C170.493 228.89 206.622 218.415 242.892 208.573C244.783 208.059 246.673 207.54 248.563 207.021C263.614 202.893 278.816 199.551 294.071 196.283C298.35 195.364 302.621 194.412 306.887 193.434C331.005 187.908 355.247 183.534 379.75 180.125C380.534 180.016 381.317 179.906 382.125 179.793C384.348 179.485 386.572 179.182 388.797 178.883C390.705 178.626 390.705 178.626 392.651 178.364C395.475 178.057 398.165 177.924 401 178Z" fill="#3E437C"/>
<path d="M483 98C481.57 101.855 479.775 105.275 477.684 108.813C477.355 109.37 477.027 109.928 476.689 110.503C475.608 112.337 474.523 114.169 473.438 116C472.677 117.289 471.916 118.578 471.156 119.868C469.973 121.875 468.789 123.882 467.604 125.888C464.497 131.15 461.407 136.422 458.339 141.706C456.533 144.813 454.71 147.906 452.843 150.976C449.425 156.622 446.255 162.004 444.397 168.378C442.297 172.491 439.426 176.114 434.986 177.735C432.707 178.177 430.478 178.43 428.164 178.617C427.34 178.705 426.516 178.792 425.667 178.882C417.134 179.721 408.57 179.943 400 180C400.33 179.34 400.66 178.68 401 178C403.409 177.894 405.749 177.898 408.156 177.949C424.624 178.119 424.624 178.119 439.048 171.44C444.353 164.678 447.724 156.933 451.13 149.089C453.861 142.929 457.393 137.233 460.881 131.48C462.69 128.482 464.449 125.456 466.215 122.434C470.429 115.26 474.687 108.114 479 101C471.515 101.716 464.195 102.957 456.812 104.375C456.17 104.498 455.528 104.621 454.866 104.748C441.491 107.335 428.245 110.446 415 113.625C414.018 113.86 413.036 114.096 412.024 114.339C401.574 116.851 391.155 119.43 380.801 122.314C378 123 378 123 375 123C375 122.34 375 121.68 375 121C466.054 97.6611 466.054 97.6611 483 98Z" fill="#423375"/>
<path d="M186 320C182.453 322.263 179.005 323.86 175.047 325.277C173.883 325.702 172.719 326.127 171.52 326.564C170.598 326.899 170.598 326.899 169.659 327.24C141.738 337.44 115.374 350.957 91 368C90.1255 368.606 90.1255 368.606 89.2334 369.225C76.574 378.024 64.5485 387.491 52.9729 397.673C50.058 400.236 47.1597 402.736 44 405C47.8727 396.606 55.1444 390.926 62.2817 385.352C64.1698 383.866 66.0356 382.356 67.9023 380.844C99.9157 355.157 136.305 335.516 175 322C175.862 321.688 176.725 321.376 177.613 321.055C178.422 320.77 179.23 320.485 180.062 320.191C180.775 319.937 181.488 319.682 182.223 319.42C184 319 184 319 186 320Z" fill="#3B6396"/>
<path d="M116 249C116 249.66 116 250.32 116 251C114.392 251.548 114.392 251.548 112.751 252.107C91.6962 259.298 70.7445 266.703 50 274.75C49.0813 275.106 48.1626 275.463 47.216 275.83C38.2144 279.329 29.2348 282.877 20.3047 286.555C19.3295 286.956 19.3295 286.956 18.3345 287.365C15.3953 288.577 12.4619 289.8 9.53516 291.042C8.5516 291.454 7.56805 291.865 6.55469 292.289C5.71406 292.647 4.87343 293.005 4.00732 293.374C2 294 2 294 0 293C9.19261 286.021 18.8558 279.812 28.5601 273.578C30.8286 272.111 33.0828 270.625 35.332 269.129C35.9787 268.702 36.6254 268.275 37.2917 267.836C39.0124 266.699 40.729 265.557 42.4453 264.414C43.2884 263.947 44.1314 263.481 45 263C45.66 263.33 46.32 263.66 47 264C43.3656 268.101 38.9722 270.74 34.375 273.625C32.8397 274.594 31.3058 275.565 29.7734 276.539C29.0972 276.964 28.4209 277.389 27.7241 277.827C25.8561 279.019 25.8561 279.019 24 281C31.6272 278.907 38.9365 276.176 46.289 273.273C49.6963 271.93 53.1096 270.601 56.5234 269.273C57.2239 269.001 57.9243 268.729 58.6459 268.448C69.6258 264.193 80.6944 260.176 91.7676 256.17C94.6861 255.114 97.6012 254.048 100.516 252.98C102.052 252.424 103.588 251.868 105.125 251.312C106.119 250.946 106.119 250.946 107.132 250.573C110.351 249.424 112.51 249 116 249Z" fill="#402D70"/>
<path d="M363 203C365.43 205.43 365.499 206.664 366.089 210.01C366.28 211.071 366.471 212.131 366.667 213.223C366.869 214.391 367.071 215.558 367.278 216.762C367.496 217.988 367.714 219.214 367.939 220.477C368.536 223.844 369.125 227.211 369.711 230.58C370.2 233.389 370.694 236.197 371.188 239.005C372.353 245.627 373.509 252.25 374.66 258.874C375.849 265.716 377.053 272.556 378.263 279.395C379.3 285.26 380.329 291.127 381.351 296.995C381.962 300.503 382.576 304.009 383.198 307.515C383.891 311.421 384.566 315.329 385.239 319.238C385.449 320.406 385.659 321.574 385.875 322.777C386.054 323.837 386.234 324.897 386.419 325.99C386.58 326.914 386.742 327.839 386.908 328.792C386.938 329.52 386.969 330.249 387 331C386.34 331.66 385.68 332.32 385 333C382.543 320.912 380.104 308.82 377.875 296.688C377.729 295.904 377.583 295.121 377.433 294.314C376.548 289.438 375.78 284.552 375.064 279.649C372.826 264.358 370.124 249.148 367.461 233.927C366.665 229.377 365.873 224.827 365.082 220.277C364.873 219.087 364.663 217.896 364.448 216.67C364.162 215.025 364.162 215.025 363.87 213.347C363.702 212.384 363.533 211.421 363.359 210.428C363 208 363 208 363 205C362.241 205.227 361.482 205.454 360.7 205.688C350.596 208.648 340.404 211.183 330.164 213.629C327.277 214.321 324.394 215.025 321.51 215.729C319.669 216.17 317.829 216.611 315.988 217.051C315.129 217.262 314.27 217.473 313.384 217.691C312.589 217.879 311.793 218.066 310.974 218.259C310.277 218.427 309.579 218.595 308.861 218.768C307 219 307 219 304 218C307.092 216.304 310.048 215.375 313.471 214.548C314.566 214.281 315.66 214.015 316.788 213.74C318.552 213.32 318.552 213.32 320.352 212.891C322.167 212.455 322.167 212.455 324.019 212.01C326.576 211.399 329.133 210.791 331.69 210.185C334.973 209.407 338.252 208.614 341.53 207.817C344.655 207.06 347.785 206.32 350.914 205.578C352.094 205.29 353.274 205.001 354.49 204.704C355.578 204.45 356.667 204.196 357.788 203.935C358.748 203.705 359.709 203.476 360.698 203.24C361.458 203.161 362.217 203.081 363 203Z" fill="#4D4D4E"/>
<path d="M225 215C225 215.66 225 216.32 225 217C224.238 217.209 223.476 217.417 222.692 217.632C201.737 223.412 180.973 229.751 160.25 236.312C159.013 236.704 157.776 237.095 156.501 237.499C152.901 238.639 149.302 239.782 145.703 240.926C144.011 241.463 144.011 241.463 142.285 242.011C137.532 243.527 132.787 245.056 128.072 246.689C127.366 246.933 126.659 247.176 125.931 247.428C124.156 248.046 122.386 248.677 120.616 249.309C118 250 118 250 115 249C118.078 246.948 120.739 245.922 124.227 244.707C124.866 244.484 125.505 244.261 126.164 244.032C128.316 243.286 130.47 242.548 132.625 241.812C133.373 241.556 134.121 241.299 134.891 241.035C156.199 233.744 177.769 227.263 199.34 220.802C201.906 220.028 204.466 219.241 207.026 218.449C208.546 217.985 210.066 217.522 211.586 217.059C212.257 216.847 212.928 216.636 213.619 216.418C217.52 215.241 220.93 214.794 225 215Z" fill="#3B3D78"/>
<path d="M93 327C93.99 327.33 94.98 327.66 96 328C92.0599 334.51 87.8248 340.621 83.1157 346.598C79.3583 351.422 75.92 356.434 72.5 361.5C68.056 368.076 63.4654 374.419 58.5508 380.652C56.5635 383.212 54.6982 385.839 52.8555 388.504C52.0502 389.668 52.0502 389.668 51.2288 390.855C50.1811 392.379 49.1409 393.907 48.1091 395.442C47.6323 396.135 47.1554 396.829 46.6641 397.543C46.2459 398.162 45.8278 398.781 45.397 399.419C43.7799 401.249 42.2294 402.047 40 403C42.9679 397.564 46.3321 392.61 50 387.625C51.1675 386.024 52.3341 384.422 53.5 382.82C54.3798 381.612 54.3798 381.612 55.2773 380.38C57.8853 376.777 60.4443 373.14 63 369.5C67.1391 363.61 71.333 357.763 75.5625 351.938C81.5222 343.724 87.295 335.392 93 327Z" fill="#3D3E77"/>
<path d="M107 354C107.99 354.33 108.98 354.66 110 355C106.352 358.03 102.579 360.608 98.5625 363.125C82.4045 373.388 67.3392 385.036 52.9729 397.673C50.058 400.236 47.1597 402.736 44 405C47.8727 396.606 55.1444 390.926 62.2817 385.352C64.1698 383.866 66.0356 382.356 67.9023 380.844C80.0462 371.106 93.0343 360.983 107 354Z" fill="#3D3C77"/>
<path d="M153.438 274.438C155.525 274.483 157.613 274.524 159.701 274.561C164.803 274.659 169.901 274.815 175 275C175 275.66 175 276.32 175 277C173.771 276.931 172.541 276.862 171.275 276.79C149.388 274.781 149.388 274.781 128.686 279.783C124.104 283.962 121.459 288.893 119.115 294.575C117.323 298.472 114.707 301.697 112 305C111.67 304.01 111.34 303.02 111 302C111.969 300.15 111.969 300.15 113.5 298.086C114.058 297.324 114.616 296.562 115.191 295.777C115.788 294.985 116.385 294.192 117 293.375C117.566 292.605 118.132 291.836 118.715 291.043C119.877 289.47 121.064 287.916 122.275 286.38C124.07 284.059 124.07 284.059 125.211 281.427C130.688 271.177 143.442 274.063 153.438 274.438Z" fill="#3672A7"/>
<path d="M208 166C208.66 166 209.32 166 210 166C208.307 174.169 201.657 183.354 195.156 188.444C191.375 190.798 187.351 192.487 183.212 194.105C180.802 195.08 178.465 196.166 176.117 197.281C174.495 198.043 172.873 198.803 171.25 199.562C170.487 199.922 169.725 200.282 168.939 200.653C168.222 200.975 167.505 201.297 166.766 201.629C166.134 201.918 165.503 202.208 164.853 202.506C162.582 203.111 161.203 202.731 159 202C160.556 201.202 162.113 200.406 163.673 199.616C165.084 198.9 166.493 198.179 167.9 197.452C171.889 195.427 175.844 193.64 180.059 192.133C193.65 187.088 199.925 180.26 206.897 167.601C207.443 166.809 207.443 166.809 208 166Z" fill="#3A457B"/>
<path d="M158 202C158.99 202.66 159.98 203.32 161 204C159.583 204.708 158.167 205.417 156.75 206.125C155.839 206.58 154.928 207.036 153.99 207.505C151.982 208.509 149.974 209.513 147.965 210.516C143.452 212.772 138.939 215.028 134.434 217.301C126.36 221.368 118.239 225.275 110 229C110 228.01 110 227.02 110 226C114.745 223.543 119.491 221.089 124.24 218.639C125.849 217.808 127.457 216.976 129.066 216.143C134.363 213.4 139.673 210.685 145 208C145.667 207.661 146.334 207.322 147.022 206.973C148.826 206.063 150.641 205.175 152.457 204.289C153.464 203.794 154.47 203.298 155.507 202.788C156.741 202.398 156.741 202.398 158 202Z" fill="#373E77"/>
<path d="M285 200C279.529 202.527 274.1 204.165 268.262 205.629C267.341 205.864 266.42 206.099 265.471 206.342C263.531 206.836 261.591 207.327 259.65 207.816C256.706 208.558 253.764 209.308 250.822 210.061C248.927 210.542 247.032 211.023 245.137 211.504C244.27 211.725 243.403 211.946 242.509 212.173C240.01 212.801 237.508 213.407 235 214C234.081 214.221 233.162 214.442 232.216 214.67C231.317 214.872 230.418 215.073 229.491 215.281C228.678 215.467 227.865 215.654 227.026 215.846C226.358 215.897 225.689 215.947 225 216C224.34 215.34 223.68 214.68 223 214C229.151 212.341 235.304 210.688 241.457 209.038C243.544 208.478 245.631 207.916 247.718 207.353C280.522 198.507 280.522 198.507 285 200Z" fill="#38588D"/>
<path d="M376 273C376.33 273 376.66 273 377 273C378.352 280.525 379.691 288.053 381.015 295.583C381.63 299.079 382.25 302.575 382.879 306.069C383.601 310.083 384.305 314.1 385.008 318.117C385.237 319.376 385.466 320.634 385.702 321.93C385.902 323.091 386.103 324.252 386.309 325.449C386.491 326.475 386.673 327.501 386.861 328.558C386.907 329.364 386.953 330.17 387 331C386.34 331.66 385.68 332.32 385 333C382.505 320.724 380.034 308.443 377.75 296.125C377.587 295.266 377.425 294.408 377.257 293.523C374.172 276.656 374.172 276.656 376 273Z" fill="#474748"/>
<path d="M292 222C289.324 224.676 286.473 225.012 282.895 225.805C281.82 226.053 281.82 226.053 280.724 226.305C278.422 226.835 276.117 227.356 273.812 227.875C270.818 228.556 267.825 229.242 264.832 229.93C264.094 230.098 263.357 230.266 262.596 230.44C256.393 231.87 250.266 233.527 244.143 235.27C241.286 235.933 238.915 236.152 236 236C238.315 233.685 239.622 233.388 242.753 232.564C243.741 232.3 244.729 232.037 245.747 231.766C246.818 231.489 247.889 231.211 248.992 230.926C250.09 230.638 251.187 230.35 252.318 230.053C254.642 229.445 256.967 228.841 259.293 228.24C262.856 227.317 266.415 226.377 269.973 225.436C272.229 224.848 274.485 224.261 276.742 223.676C277.809 223.393 278.876 223.109 279.975 222.817C280.969 222.564 281.963 222.31 282.988 222.048C283.861 221.821 284.734 221.594 285.634 221.36C288.106 220.984 289.649 221.212 292 222Z" fill="#BCBCBD"/>
<path d="M225 215C225 215.66 225 216.32 225 217C220.181 218.391 215.361 219.778 210.541 221.163C208.904 221.633 207.268 222.104 205.633 222.577C203.267 223.259 200.901 223.939 198.535 224.617C197.816 224.826 197.097 225.034 196.356 225.249C194.242 225.853 192.124 226.434 190 227C189.187 227.219 188.374 227.438 187.537 227.663C186.73 227.865 185.923 228.066 185.092 228.274C184.356 228.461 183.621 228.649 182.864 228.842C182.249 228.894 181.634 228.946 181 229C180.34 228.34 179.68 227.68 179 227C184.584 225.28 190.17 223.572 195.76 221.873C197.66 221.294 199.559 220.712 201.458 220.127C204.191 219.285 206.927 218.454 209.664 217.625C210.93 217.231 210.93 217.231 212.222 216.83C216.613 215.511 220.358 214.685 225 215Z" fill="#37477F"/>
<path d="M286 57C286.99 57.33 287.98 57.66 289 58C288.285 58.9346 287.569 59.8691 286.832 60.832C280.447 69.2307 274.325 77.7594 268.454 86.5266C265.508 90.9023 262.457 95.0142 259 99C258.34 98.67 257.68 98.34 257 98C263.81 88.306 270.664 78.6474 277.634 69.0669C280.513 65.099 283.313 61.1013 286 57Z" fill="#3F4C83"/>
<path d="M60 375C60.33 375.66 60.66 376.32 61 377C58.9654 380.026 56.921 383.045 54.875 386.062C54.0204 387.334 54.0204 387.334 53.1484 388.631C49.6978 393.709 46.0894 398.42 42 403C41.34 402.67 40.68 402.34 40 402C42.0613 398.978 44.1242 395.958 46.1875 392.938C46.7656 392.09 47.3438 391.242 47.9395 390.369C49.6208 387.909 51.3087 385.453 53 383C53.4855 382.291 53.971 381.582 54.4712 380.852C57.7664 376.117 57.7664 376.117 60 375Z" fill="#413272"/>
<path d="M214 312C214 312.66 214 313.32 214 314C209.733 315.201 205.461 316.384 201.188 317.563C199.973 317.905 198.758 318.247 197.506 318.6C196.342 318.919 195.179 319.238 193.98 319.566C192.907 319.865 191.833 320.163 190.727 320.471C188 321 188 321 185 320C189.526 316.837 194.225 315.649 199.5 314.313C200.763 313.975 200.763 313.975 202.051 313.631C206.102 312.581 209.777 311.68 214 312Z" fill="#40477C"/>
<path d="M208 166C208.66 166 209.32 166 210 166C209.023 171.005 206.13 174.577 203.25 178.688C202.724 179.472 202.198 180.256 201.656 181.064C201.135 181.81 200.615 182.556 200.078 183.324C199.608 184.006 199.138 184.687 198.653 185.389C196.545 187.443 194.876 187.663 192 188C192.784 186.969 193.567 185.938 194.375 184.875C196.491 182.071 198.546 179.233 200.555 176.352C200.999 175.718 201.443 175.083 201.901 174.43C202.797 173.149 203.687 171.863 204.572 170.574C205.665 169.014 206.827 167.502 208 166Z" fill="#395F94"/>
<path d="M243 118C243.66 118.33 244.32 118.66 245 119C242.943 122.045 240.878 125.085 238.812 128.125C237.945 129.409 237.945 129.409 237.061 130.719C233.906 135.353 230.681 139.771 227 144C226.67 143.01 226.34 142.02 226 141C227.016 139.086 227.016 139.086 228.605 136.945C229.177 136.165 229.749 135.386 230.338 134.582C230.948 133.771 231.559 132.96 232.188 132.125C232.779 131.322 233.37 130.519 233.979 129.691C236.906 125.729 239.885 121.818 243 118Z" fill="#96B8D3"/>
<path d="M127 280C127.66 280 128.32 280 129 280C127.389 285.08 124.318 288.886 121.125 293.062C120.33 294.123 120.33 294.123 119.52 295.205C116.87 298.706 114.226 302 111 305C111.617 301.786 112.714 299.68 114.617 297.031C115.142 296.295 115.666 295.559 116.207 294.801C117.033 293.662 117.033 293.662 117.875 292.5C118.689 291.361 118.689 291.361 119.52 290.199C121.004 288.126 122.495 286.059 124 284C124.77 282.887 124.77 282.887 125.555 281.752C126.032 281.174 126.509 280.596 127 280Z" fill="#85ADCB"/>
<path d="M110 304C110.66 304.66 111.32 305.32 112 306C111.216 307.031 110.433 308.062 109.625 309.125C104.965 315.331 100.495 321.675 96 328C95.34 327.34 94.68 326.68 94 326C96.1036 323.083 98.208 320.166 100.312 317.25C100.907 316.425 101.502 315.6 102.115 314.75C102.692 313.951 103.269 313.152 103.863 312.328C104.392 311.595 104.921 310.862 105.466 310.106C106.959 308.057 108.473 306.025 110 304Z" fill="#3C679B"/>
<path d="M225 143C225.66 143.66 226.32 144.32 227 145C226.432 145.75 225.863 146.5 225.277 147.273C220.384 153.76 215.607 160.304 211 167C210.34 166.34 209.68 165.68 209 165C211.104 162.083 213.208 159.166 215.312 156.25C215.907 155.425 216.502 154.6 217.115 153.75C217.692 152.951 218.269 152.152 218.863 151.328C219.392 150.595 219.921 149.862 220.466 149.106C221.959 147.057 223.473 145.025 225 143Z" fill="#3B76AA"/>
<path d="M110 355C106.294 358.087 102.421 360.737 98.3125 363.25C97.4414 363.795 97.4414 363.795 96.5527 364.352C92.2465 367 92.2465 367 90 367C91.5084 362.475 94.9333 361.177 98.875 358.75C99.6085 358.278 100.342 357.806 101.098 357.32C101.805 356.879 102.513 356.439 103.242 355.984C103.89 355.579 104.539 355.174 105.207 354.757C107 354 107 354 110 355Z" fill="#3B487F"/>
<path d="M126 343C126.66 343.33 127.32 343.66 128 344C124.856 347.483 121.555 349.588 117.438 351.812C116.302 352.438 115.166 353.063 113.996 353.707C111 355 111 355 108 354C111.683 350.884 115.448 348.484 119.688 346.188C120.826 345.562 121.964 344.937 123.137 344.293C124.082 343.866 125.026 343.44 126 343Z" fill="#38588C"/>
<path d="M59 388C59.99 388.33 60.98 388.66 62 389C58.3309 392.724 54.5533 396.294 50.6875 399.812C49.8628 400.566 49.8628 400.566 49.0215 401.334C47.6819 402.557 46.3411 403.779 45 405C45 399.78 49.5084 396.599 53 393C54.9531 391.077 56.7372 389.579 59 388Z" fill="#3D2B6B"/>
<path d="M257 99C257.66 99.33 258.32 99.66 259 100C254.71 105.94 250.42 111.88 246 118C245.01 117.67 244.02 117.34 243 117C244.956 114.373 246.915 111.749 248.875 109.125C249.431 108.379 249.986 107.632 250.559 106.863C251.094 106.148 251.629 105.432 252.18 104.695C252.918 103.706 252.918 103.706 253.671 102.696C255 101 255 101 257 99Z" fill="#4882B2"/>
<path d="M307 195C300.488 198.18 291.076 202.359 284 200C299.803 192.458 299.803 192.458 307 195Z" fill="#3C4E86"/>
<path d="M93 327C93.99 327.33 94.98 327.66 96 328C94.9233 329.754 93.8384 331.503 92.75 333.25C91.8451 334.712 91.8451 334.712 90.9219 336.203C89.1395 338.797 87.299 340.864 85 343C84.67 342.01 84.34 341.02 84 340C85.4033 337.647 86.8216 335.509 88.4375 333.312C88.8713 332.706 89.305 332.099 89.752 331.475C90.8254 329.976 91.9116 328.487 93 327Z" fill="#37548A"/>
<path d="M141 211C141 211.99 141 212.98 141 214C136.808 216.257 132.638 217.856 128.125 219.305C125.703 220.097 123.349 221.015 121 222C121 221.34 121 220.68 121 220C123.955 218.494 126.915 216.996 129.875 215.5C130.717 215.071 131.559 214.641 132.426 214.199C133.231 213.793 134.037 213.387 134.867 212.969C135.611 212.592 136.354 212.215 137.121 211.826C139 211 139 211 141 211Z" fill="#38356F"/>
<path d="M83 341C83.66 341 84.32 341 85 341C84.377 345.075 82.2347 347.895 79.9375 351.25C79.204 352.328 78.4705 353.405 77.7148 354.516C77.1489 355.335 76.583 356.155 76 357C75.34 356.01 74.68 355.02 74 354C75.4503 351.828 76.9096 349.662 78.375 347.5C78.7875 346.88 79.2 346.26 79.625 345.621C80.699 344.045 81.8449 342.518 83 341Z" fill="#3B487E"/>
<path d="M268 82C268.99 82.33 269.98 82.66 271 83C265.06 90.92 265.06 90.92 259 99C258.34 98.67 257.68 98.34 257 98C260.63 92.72 264.26 87.44 268 82Z" fill="#3E6598"/>
<path d="M254 232C254 232.33 254 232.66 254 233C251.939 233.507 249.876 234.005 247.812 234.5C246.09 234.918 246.09 234.918 244.332 235.344C241.432 235.915 238.939 236.133 236 236C238.394 233.606 240.071 233.212 243.312 232.312C244.257 232.04 245.202 231.768 246.176 231.488C249.138 230.976 251.121 231.219 254 232Z" fill="#9E9EA2"/>
<path d="M199 316C198 318 198 318 195.82 318.887C194.931 319.151 194.041 319.415 193.125 319.688C192.241 319.96 191.356 320.232 190.445 320.512C188 321 188 321 185 320C188.883 317.411 194.431 313.715 199 316Z" fill="#3F5086"/>
<path d="M190 187C191.32 187.66 192.64 188.32 194 189C190.04 190.65 186.08 192.3 182 194C184.257 189.486 185.368 188.668 190 187Z" fill="#345189"/>
<path d="M133.164 274.805C134.382 274.839 134.382 274.839 135.625 274.875C136.851 274.902 136.851 274.902 138.102 274.93C139.041 274.964 139.041 274.964 140 275C139.67 275.66 139.34 276.32 139 277C137.329 277.217 137.329 277.217 135.625 277.438C132.069 277.989 131.066 278.204 129 281C129 275.181 129 275.181 133.164 274.805Z" fill="#4B87B7"/>
<path d="M254 266C256.383 266.242 256.383 266.242 259.125 266.875C260.035 267.079 260.945 267.282 261.883 267.492C262.581 267.66 263.28 267.827 264 268C264 268.99 264 269.98 264 271C258.06 269.515 258.06 269.515 252 268C252.66 267.34 253.32 266.68 254 266Z" fill="#5D5D60"/>
<path d="M276 71C276.99 71.33 277.98 71.66 279 72C276.36 75.3 273.72 78.6 271 82C270.34 81.67 269.68 81.34 269 81C272.465 76.05 272.465 76.05 276 71Z" fill="#3F5B8F"/>
<path d="M280 225C272.714 228.571 272.714 228.571 268 227C272.278 224.708 275.25 223.473 280 225Z" fill="#B4B4B5"/>
<path d="M437 172C437.66 172 438.32 172 439 172C438.34 173.65 437.68 175.3 437 177C433.04 176.67 429.08 176.34 425 176C425 175.67 425 175.34 425 175C425.782 174.951 426.565 174.902 427.371 174.852C428.383 174.777 429.395 174.702 430.438 174.625C431.447 174.555 432.456 174.486 433.496 174.414C434.736 174.209 434.736 174.209 436 174C436.33 173.34 436.66 172.68 437 172Z" fill="#3F4184"/>
<path d="M225 143C225.66 143.66 226.32 144.32 227 145C224.69 147.97 222.38 150.94 220 154C219.67 153.01 219.34 152.02 219 151C220.215 148.957 220.215 148.957 221.938 146.812C222.503 146.097 223.069 145.382 223.652 144.645C224.097 144.102 224.542 143.559 225 143Z" fill="#6295BE"/>
<path d="M93 327C93.99 327.33 94.98 327.66 96 328C94.1875 331 94.1875 331 92 334C91.01 334 90.02 334 89 334C90.32 331.69 91.64 329.38 93 327Z" fill="#375D92"/>
<path d="M110 304C110.66 304.66 111.32 305.32 112 306C110.02 308.64 108.04 311.28 106 314C105.34 313.34 104.68 312.68 104 312C105.98 309.36 107.96 306.72 110 304Z" fill="#4681B1"/>
<path d="M208 166C208.66 166 209.32 166 210 166C209.426 169.871 207.513 172.082 205 175C204.67 174.01 204.34 173.02 204 172C205.812 168.812 205.812 168.812 208 166Z" fill="#376A9E"/>
<path d="M103 313C103.66 313 104.32 313 105 313C104.458 316.796 102.799 318.472 100 321C100 317.401 100.958 315.905 103 313Z" fill="#3B6FA3"/>
<path d="M115 297C115.66 297.66 116.32 298.32 117 299C115.35 300.98 113.7 302.96 112 305C111.67 304.01 111.34 303.02 111 302C112.938 299.312 112.938 299.312 115 297Z" fill="#709DC2"/>
<path d="M34 280C31.5372 282.463 29.2932 282.998 26 284C26 283.01 26 282.02 26 281C30.625 278.875 30.625 278.875 34 280Z" fill="#3C2965"/>
<path d="M230 136C230.66 136.66 231.32 137.32 232 138C230.35 139.98 228.7 141.96 227 144C226.67 143.01 226.34 142.02 226 141C227.938 138.312 227.938 138.312 230 136Z" fill="#8BB1CE"/>
<path d="M261 92C261.99 92.33 262.98 92.66 264 93C262.35 94.98 260.7 96.96 259 99C258.34 98.67 257.68 98.34 257 98C258.32 96.02 259.64 94.04 261 92Z" fill="#3E6EA1"/>
</g>
<defs>
<linearGradient id="paint0_linear_814_4692" x1="407.394" y1="54.2693" x2="-16.3941" y2="302.231" gradientUnits="userSpaceOnUse">
<stop stop-color="#1C98D3"/>
<stop offset="0.977003" stop-color="#073752"/>
</linearGradient>
<linearGradient id="paint1_linear_814_4692" x1="246" y1="275" x2="17.5" y2="418" gradientUnits="userSpaceOnUse">
<stop stop-color="#1C98D3"/>
<stop offset="1" stop-color="#032B44"/>
</linearGradient>
<clipPath id="clip0_814_4692">
<rect width="1408" height="419" fill="white"/>
</clipPath>
</defs>
</svg>
