<?xml version="1.0" standalone="no"?>
<!DOCTYPE svg PUBLIC "-//W3C//DTD SVG 20010904//EN"
 "http://www.w3.org/TR/2001/REC-SVG-20010904/DTD/svg10.dtd">
<svg version="1.0" xmlns="http://www.w3.org/2000/svg"
 width="1408.000000pt" height="419.000000pt" viewBox="0 0 1408.000000 419.000000"
 preserveAspectRatio="xMidYMid meet">

<g transform="translate(0.000000,419.000000) scale(0.100000,-0.100000)"
fill="#000000" stroke="none">
<path d="M3070 3893 c-390 -549 -565 -799 -584 -833 -29 -51 -228 -330 -274
-383 -22 -25 -89 -114 -150 -199 l-111 -153 -113 -49 c-320 -138 -918 -449
-1278 -665 -157 -95 -520 -330 -520 -337 0 -2 17 3 38 12 701 298 1765 652
2556 850 646 162 1092 239 1673 290 l61 5 226 386 c125 212 225 387 224 389
-5 4 -326 -58 -493 -95 -176 -40 -485 -119 -672 -172 -79 -23 -145 -40 -147
-38 -2 2 -51 281 -110 619 -59 338 -110 625 -114 638 -6 19 -36 -17 -212 -265z
m259 -82 c28 -162 49 -296 48 -298 -6 -5 -272 372 -272 385 0 7 36 64 80 128
63 91 81 111 87 97 4 -10 30 -150 57 -312z m1264 -968 c-114 -192 -214 -360
-222 -375 -14 -25 -21 -28 -72 -28 -31 0 -76 -3 -101 -6 l-44 -6 -188 262
c-103 143 -186 263 -185 265 23 21 917 231 1001 234 12 1 -44 -101 -189 -346z"/>
<path d="M4457 2193 c-3 -5 -79 -190 -170 -413 -260 -638 -281 -683 -327 -688
-64 -7 -70 -11 -70 -47 l0 -35 196 0 195 0 -3 38 c-3 37 -4 37 -53 42 -90 9
-92 18 -38 173 l37 107 222 0 222 0 36 -92 c59 -153 60 -157 46 -173 -7 -9
-29 -15 -50 -15 -58 0 -70 -8 -70 -46 l0 -34 266 0 265 0 -3 38 c-3 35 -5 37
-46 43 -23 3 -50 12 -58 21 -16 16 -106 221 -329 756 l-139 332 -63 0 c-34 0
-64 -3 -66 -7z m83 -514 c44 -106 80 -197 80 -201 0 -4 -79 -8 -176 -8 -174 0
-175 0 -169 21 4 12 43 109 88 216 56 135 83 190 88 180 5 -8 45 -102 89 -208z"/>
<path d="M8523 2192 l-383 -2 0 -30 c0 -26 4 -30 38 -35 84 -13 97 -19 103
-50 9 -40 11 -755 2 -878 l-6 -98 -44 -25 c-27 -16 -43 -33 -43 -45 0 -19 12
-19 433 -17 l432 3 7 105 c4 58 9 122 12 143 6 37 6 37 -29 37 -28 0 -36 -4
-40 -22 -3 -13 -11 -52 -19 -87 -8 -34 -17 -65 -20 -68 -3 -3 -99 -8 -214 -11
l-209 -5 -6 48 c-4 26 -7 133 -7 236 l0 189 148 0 c103 0 153 -4 165 -12 11
-9 19 -34 23 -75 l7 -63 33 0 34 0 0 190 0 190 -34 0 -33 0 -7 -60 c-5 -44
-12 -63 -26 -70 -10 -5 -84 -10 -164 -10 l-146 0 0 148 c0 81 3 177 7 215 l6
67 141 0 c145 0 252 -12 270 -30 5 -5 12 -37 14 -70 l4 -60 34 0 c34 0 34 1
34 44 0 25 5 79 11 121 6 42 9 78 7 80 -9 7 -192 10 -535 7z"/>
<path d="M3575 2135 c-27 -7 -176 -43 -330 -80 -154 -37 -289 -73 -300 -80
-21 -13 -536 -143 -649 -164 -65 -12 -704 -188 -801 -220 -42 -14 -49 -19 -25
-16 127 17 397 25 548 15 476 -30 852 -135 1247 -349 186 -101 409 -260 554
-395 54 -51 54 -51 49 -21 -3 17 -57 321 -119 678 -62 356 -116 647 -119 646
-3 0 -27 -7 -55 -14z m55 -17 c0 -7 20 -128 44 -268 24 -140 42 -256 41 -257
0 -2 -166 84 -368 190 l-366 192 307 77 c169 42 315 77 325 77 9 1 17 -5 17
-11z"/>
<path d="M6485 1820 c-16 -6 -66 -30 -110 -54 l-80 -44 0 -58 c0 -56 1 -59 26
-62 21 -3 28 4 44 38 23 51 45 63 115 64 95 1 161 -55 174 -150 3 -26 4 -49 2
-51 -2 -2 -50 -15 -107 -28 -280 -64 -334 -108 -334 -275 0 -68 4 -92 21 -120
25 -44 73 -76 124 -85 72 -12 113 2 204 71 47 35 87 64 90 64 2 0 2 -27 -1
-60 l-6 -60 167 0 167 0 -3 32 c-3 30 -7 33 -47 40 -25 4 -49 12 -55 18 -7 7
-11 106 -11 293 l0 282 -27 47 c-41 69 -112 101 -232 105 -50 1 -104 -2 -121
-7z m175 -499 l0 -99 -34 -30 c-48 -42 -97 -57 -140 -42 -46 15 -66 48 -66
109 0 41 5 56 28 81 29 33 136 79 185 79 l27 1 0 -99z"/>
<path d="M7307 1804 c-43 -13 -114 -29 -158 -36 l-79 -12 0 -33 c0 -32 1 -32
52 -35 l53 -3 8 -55 c5 -30 7 -160 5 -289 -5 -262 -4 -261 -80 -261 -37 0 -38
-1 -38 -35 l0 -35 230 0 230 0 0 34 c0 33 -1 34 -51 38 -27 3 -56 11 -62 17
-8 8 -13 81 -15 244 -3 220 -2 234 18 265 46 74 180 95 240 37 46 -44 53 -105
47 -360 -4 -121 -9 -232 -13 -247 l-6 -28 176 0 176 0 0 35 c0 31 -3 35 -27
35 -46 0 -72 11 -80 34 -4 11 -8 140 -8 286 0 263 0 265 -25 315 -37 75 -96
107 -203 113 -101 5 -129 -5 -218 -81 -36 -32 -69 -57 -73 -57 -3 0 -6 32 -6
70 0 39 -3 69 -7 69 -5 -1 -43 -12 -86 -25z"/>
<path d="M9251 1780 c-41 -28 -79 -50 -83 -50 -4 0 -8 -13 -8 -30 0 -25 4 -30
25 -30 57 0 110 -47 215 -190 34 -47 65 -91 67 -98 5 -12 -118 -173 -191 -250
-29 -30 -52 -44 -78 -49 -35 -5 -38 -8 -38 -39 l0 -34 83 0 83 0 77 113 c42
61 87 125 100 140 l22 29 95 -143 c52 -78 107 -149 121 -157 24 -14 33 -12
130 26 90 35 104 44 107 65 3 21 -2 26 -26 32 -16 3 -45 23 -65 43 -35 37
-217 299 -217 313 0 9 167 204 203 238 14 13 41 26 59 30 28 6 33 11 36 39 l3
32 -84 0 -85 0 -87 -125 c-48 -69 -91 -127 -95 -130 -4 -2 -31 30 -60 73 -29
42 -69 96 -87 120 -35 43 -97 82 -130 82 -10 -1 -52 -23 -92 -50z"/>
<path d="M10309 1804 c-42 -12 -117 -28 -168 -34 l-91 -13 0 -33 0 -34 55 0
c51 0 55 -2 62 -27 5 -16 8 -239 8 -498 0 -360 -3 -475 -13 -492 -11 -19 -21
-23 -62 -23 l-50 0 0 -35 0 -35 246 0 245 0 -3 33 c-3 32 -4 32 -60 35 -37 2
-61 9 -70 19 -9 12 -14 64 -16 189 l-4 174 39 -17 c53 -23 167 -23 214 0 19
10 85 58 145 106 119 97 148 136 179 245 26 89 17 234 -17 302 -27 52 -77 103
-126 128 -50 26 -147 38 -209 26 -31 -5 -58 -10 -59 -10 -1 0 -37 -27 -80 -61
l-79 -61 -5 69 -5 69 -76 -22z m341 -142 c91 -46 133 -169 113 -332 -20 -159
-83 -233 -198 -233 -54 0 -94 16 -144 59 l-31 26 0 208 0 208 33 28 c17 15 46
33 62 40 43 19 124 17 165 -4z"/>
<path d="M11331 1805 c-35 -13 -106 -28 -157 -35 l-94 -13 0 -33 c0 -34 0 -34
49 -34 27 0 53 -6 59 -13 30 -35 25 -552 -5 -582 -8 -9 -33 -15 -59 -15 -44 0
-44 0 -44 -35 l0 -35 245 0 245 0 0 34 0 33 -61 6 c-34 3 -66 10 -73 17 -7 7
-12 82 -14 223 -2 187 0 216 15 246 38 73 144 92 202 37 47 -45 61 -29 63 75
1 49 2 101 2 117 1 24 -3 27 -38 30 -66 6 -88 -6 -168 -91 l-78 -82 0 88 c0
99 5 95 -89 62z"/>
<path d="M12114 1817 c-73 -24 -168 -81 -221 -132 -69 -67 -87 -127 -87 -285
0 -130 19 -196 78 -273 34 -45 118 -101 176 -117 108 -31 260 -18 364 31 37
17 53 32 69 66 29 59 16 70 -49 42 -61 -27 -168 -36 -229 -19 -91 25 -163 116
-183 228 l-9 52 166 0 c103 0 198 6 251 15 47 8 86 15 88 15 1 0 2 36 2 80 0
141 -53 232 -165 281 -61 28 -190 35 -251 16z m143 -108 c37 -34 53 -79 53
-147 l0 -59 -46 -7 c-59 -8 -124 -8 -193 1 l-53 6 6 59 c11 94 39 146 91 169
36 16 113 4 142 -22z"/>
<path d="M12880 1815 c-69 -19 -126 -58 -165 -114 -26 -37 -30 -53 -33 -120
-7 -134 40 -194 180 -230 227 -60 244 -69 255 -135 8 -49 -12 -91 -55 -118
-51 -31 -159 -31 -219 0 -62 32 -83 65 -83 128 l0 54 -39 0 -39 0 -4 -112 c-2
-70 0 -117 7 -124 19 -22 158 -48 250 -48 222 0 365 112 365 286 0 79 -21 130
-70 171 -33 28 -52 35 -195 66 -116 25 -138 34 -164 67 -56 71 15 164 126 164
101 0 156 -39 167 -118 6 -49 8 -52 35 -52 26 0 30 4 35 38 3 20 7 68 8 107
l3 69 -45 14 c-69 21 -254 25 -320 7z"/>
<path d="M13652 1816 c-67 -17 -127 -58 -166 -114 -24 -34 -31 -56 -34 -107
-6 -96 3 -130 51 -179 36 -37 53 -46 127 -65 196 -51 220 -60 240 -94 24 -39
25 -68 5 -111 -24 -50 -68 -70 -150 -70 -75 0 -118 16 -167 62 -24 22 -28 33
-28 84 l0 58 -39 0 -39 0 -4 -112 c-2 -70 0 -117 7 -124 21 -23 158 -49 255
-48 212 2 346 101 358 263 5 78 -8 127 -45 172 -35 41 -63 54 -178 78 -148 32
-174 42 -201 74 -31 37 -31 78 1 116 47 56 150 66 231 24 40 -20 48 -36 59
-105 5 -34 9 -38 35 -38 27 0 29 3 34 53 3 28 7 77 8 106 l3 55 -45 14 c-65
20 -253 25 -318 8z"/>
<path d="M5190 1775 c0 -33 2 -35 33 -35 64 0 56 15 247 -467 l128 -323 -44
-89 c-24 -49 -57 -102 -73 -119 -50 -50 -116 -52 -179 -5 -18 14 -36 22 -40
18 -4 -3 -14 -42 -22 -85 l-16 -79 23 -10 c38 -17 117 -23 159 -12 62 17 125
64 163 123 19 29 126 261 237 515 112 254 210 475 218 491 16 32 34 42 72 42
21 0 24 5 24 35 l0 35 -160 0 -160 0 0 -35 c0 -34 1 -35 38 -35 61 0 69 -10
54 -67 -13 -46 -139 -359 -166 -410 -12 -23 -17 -12 -88 169 -97 247 -105 273
-89 292 7 8 31 16 54 18 39 3 42 5 45 36 l3 32 -230 0 -231 0 0 -35z"/>
<path d="M1458 1430 l-136 -5 -100 -140 c-55 -77 -114 -156 -131 -175 -17 -19
-183 -246 -368 -505 -464 -647 -424 -585 -323 -491 647 605 1395 953 2165
1006 88 6 185 11 215 13 l55 2 -117 58 c-361 179 -766 255 -1260 237z m1092
-180 c52 -20 127 -53 165 -73 l70 -36 -120 -1 -121 0 -54 62 c-30 34 -61 70
-69 81 -13 18 -12 19 10 12 13 -4 67 -24 119 -45z"/>
</g>
</svg>
